<svg id="Group_1380" data-name="Group 1380" xmlns="http://www.w3.org/2000/svg" width="244.424" height="74.25" viewBox="0 0 244.424 74.25">
  <path id="Path_650" data-name="Path 650" d="M285.332,400.85l-1.667-3.82-42.87,18.7,11.746,5.009-18.659,4.921,44.282-3.057-16.319-6.959,17.236-7.518A28.773,28.773,0,1,1,261.563,388.8l2.969-7.79a37.107,37.107,0,1,0,20.8,19.84" transform="translate(-214.194 -378.562)" fill="#000"/>
  <path id="Path_651" data-name="Path 651" d="M477.79,411.49a13.215,13.215,0,0,1,8.554,3.487l.711.655,6.085-7.363-.661-.587a22.858,22.858,0,0,0-14.641-5.334c-11.319,0-19.854,7.9-19.854,18.383,0,10.535,8.282,18.48,19.265,18.48a27.775,27.775,0,0,0,14.806-4.633l.387-.274V419.521h-9.388l-8.184.025,8.184,3.107v6.088a13.263,13.263,0,0,1-5.168,1.328,9.039,9.039,0,0,1-9.142-9.338,8.943,8.943,0,0,1,9.044-9.241" transform="translate(-372.918 -394.048)" fill="#000"/>
  <path id="Path_652" data-name="Path 652" d="M457.689,532.175V523.54h2.05v8.548c0,3.363,1.455,4.882,4.038,4.882s4.059-1.518,4.059-4.882V523.54h1.989v8.635c0,4.4-2.275,6.726-6.068,6.726-3.772,0-6.068-2.322-6.068-6.726" transform="translate(-372.725 -472.952)" fill="#000"/>
  <path id="Path_653" data-name="Path 653" d="M527.242,523.54v15.187h-1.681l-8.61-11.325v11.325H514.9V523.54h1.681l8.61,11.325V523.54Z" transform="translate(-409.974 -472.952)" fill="#000"/>
  <rect id="Rectangle_93" data-name="Rectangle 93" width="2.05" height="15.187" transform="translate(125.203 50.588)" fill="#000"/>
  <path id="Path_654" data-name="Path 654" d="M610.449,523.54l-6.293,15.187h-2.03l-6.314-15.187h2.214l5.166,12.475L608.4,523.54Z" transform="translate(-462.652 -472.952)" fill="#000"/>
  <path id="Path_655" data-name="Path 655" d="M665.2,536.839v1.887H654.787V523.54h10.126v1.888h-8.077v4.664h7.2v1.844h-7.2v4.9Z" transform="translate(-501.049 -472.952)" fill="#000"/>
  <path id="Path_656" data-name="Path 656" d="M713.527,538.727l-3.1-4.665c-.287.022-.594.043-.9.043h-3.546v4.621h-2.05V523.54h5.6c3.731,0,5.986,2,5.986,5.294a4.785,4.785,0,0,1-3.157,4.795l3.4,5.1Zm-.061-9.893c0-2.169-1.373-3.406-4-3.406h-3.485v6.835h3.485c2.624,0,4-1.259,4-3.428" transform="translate(-533.046 -472.952)" fill="#000"/>
  <path id="Path_657" data-name="Path 657" d="M753.936,536.667l.759-1.692a7.139,7.139,0,0,0,4.735,1.758c2.48,0,3.546-1.02,3.546-2.344,0-3.709-8.692-1.366-8.692-7.007,0-2.343,1.722-4.339,5.494-4.339a8.1,8.1,0,0,1,4.613,1.345l-.677,1.736a7.117,7.117,0,0,0-3.936-1.237c-2.44,0-3.485,1.085-3.485,2.408,0,3.71,8.692,1.388,8.692,6.964,0,2.322-1.763,4.318-5.555,4.318a8.22,8.22,0,0,1-5.494-1.909" transform="translate(-565.601 -472.628)" fill="#000"/>
  <rect id="Rectangle_94" data-name="Rectangle 94" width="2.05" height="15.187" transform="translate(206.205 50.588)" fill="#000"/>
  <path id="Path_658" data-name="Path 658" d="M832.979,525.428h-4.92V523.54h11.869v1.887h-4.92v13.3h-2.029Z" transform="translate(-613.86 -472.952)" fill="#000"/>
  <path id="Path_659" data-name="Path 659" d="M883.928,533.477v5.25H881.9v-5.294l-5.7-9.893h2.193l4.592,8.006,4.613-8.006h2.029Z" transform="translate(-645.203 -472.952)" fill="#000"/>
  <path id="Path_660" data-name="Path 660" d="M603.088,408.966l-6.877,8.159c-2.155-2.925-5.388-4.824-8.16-4.824-4.311,0-7.441,3.438-7.441,8.211,0,4.824,3.13,8.314,7.441,8.314,2.566,0,5.8-1.591,8.16-4.106l6.877,7.339a22.321,22.321,0,0,1-15.652,7.185c-11.034,0-19.039-7.852-19.039-18.577,0-10.572,8.211-18.269,19.5-18.269a21.634,21.634,0,0,1,15.191,6.569" transform="translate(-444.802 -394.08)" fill="#000"/>
  <path id="Path_661" data-name="Path 661" d="M708.833,420.746c0,10.712-8.343,18.592-19.828,18.592s-19.829-7.828-19.829-18.592c0-10.712,8.344-18.386,19.829-18.386s19.828,7.725,19.828,18.386m-27.4.052c0,4.944,3.6,8.6,7.725,8.6s7.416-3.657,7.416-8.6-3.3-8.5-7.416-8.5c-4.171,0-7.725,3.554-7.725,8.5" transform="translate(-510.417 -394.056)" fill="#000"/>
  <path id="Path_662" data-name="Path 662" d="M825.565,439.371V419.243l-6.29,16.564h-7.967l-6.29-16.564v20.128H794.429V402.627h12.842l8.02,19.184,8.02-19.184h12.842v36.744Z" transform="translate(-591.964 -394.23)" fill="#000"/>
</svg>
